<?xml version="1.0" encoding="utf-8"?>
<!-- Generator: Adobe Illustrator 16.0.0, SVG Export Plug-In . SVG Version: 6.00 Build 0)  -->
<!DOCTYPE svg PUBLIC "-//W3C//DTD SVG 1.1//EN" "http://www.w3.org/Graphics/SVG/1.1/DTD/svg11.dtd">
<svg version="1.1" id="Layer_1" xmlns="http://www.w3.org/2000/svg" xmlns:xlink="http://www.w3.org/1999/xlink" x="0px" y="0px"
	 width="112.514px" height="77.141px" viewBox="0 0 112.514 77.141" enable-background="new 0 0 112.514 77.141"
	 xml:space="preserve">
<g>
	<g>
		<path fill="#808285" d="M111.054,0.002c1.493,4.729,0.25,9.497,0.2,14.248c-0.007,0.629-0.218,1.331-0.013,1.877
			c1.854,4.916,0.523,9.459-1.469,13.96c-1.081,2.441-2.203,4.877-3.057,7.4c-0.393,1.163-0.184,2.528-0.245,3.772
			c-0.412,0.346-1.123,0.942-1.836,1.539c0.845,0.635,1.606,1.464,2.554,1.847c0.962,0.391,2.124,0.251,3.161,0.497
			c3.165,0.75,4.467,3.502,2.163,5.79c-3.534,3.508-5.307,7.937-7.739,12.03c-0.108,0.184-0.429,0.24-0.689,0.378
			c0.819-3.368,1.679-6.649,2.406-9.963c0.597-2.707-0.427-4.103-3.206-4.696c-0.343-0.073-0.691-0.201-0.984-0.387
			c-0.678-0.429-1.322-0.906-1.979-1.365c-0.258,0.985-0.593,1.958-0.755,2.959c-0.177,1.096-0.194,2.218-0.771,3.304
			c-0.307-2.029-0.612-4.061-0.953-6.311c-2.013,0-4.047,0-5.882,0c0.26,1.861,0.851,3.562,0.561,5.099
			c-0.141,0.74-1.938,1.167-2.932,1.707c-0.903-1.397-1.626-2.515-2.605-4.031c-1.16,2.983-2.242,5.328-5.732,5.466
			c-3.61,0.142-3.625-2.867-5.132-5.108c-0.876,0.775-1.597,1.529-2.43,2.124c-1.046,0.744-2.191,1.346-3.278,2.034
			c-0.574,0.363-1.401,0.658-1.624,1.188c-2.007,4.783,1.506,14.321,6.407,15.659c4.096,1.117,8.591,0.812,12.915,1.021
			c1.301,0.062,2.62-0.271,3.942-0.189c-4.854,1.351-9.748,1.766-14.718,0.676c-1.502-0.328-3.096-0.354-4.528-0.855
			c-1.188-0.416-2.625-1.074-3.222-2.063c-1.81-3.006-3.357-6.18-4.818-9.374c-0.917-2.004-2.256-3.753-4.402-3.307
			c-1.508,0.316-3.133,1.777-3.986,3.168c-1.828,2.977-2.931,6.405-4.836,9.317c-1.154,1.763-3.262,2.904-4.938,4.325
			c-0.241-0.236-0.48-0.472-0.723-0.708c0.479-0.596,0.883-1.277,1.451-1.773c4.279-3.745,5.098-8.916,5.462-14.084
			c0.213-3.027-2.035-4.27-6.759-4.401c0.277,2.146-0.337,3.75-2.78,3.889c-0.856-1.361-1.711-2.722-2.729-4.34
			c-1.256,1.937-2.165,3.434-3.171,4.863c-1.55,2.201-3.566,2.159-4.907-0.16c-0.812-1.405-1.377-2.955-2.052-4.438
			c-2.769,0.411-3.27,4.701-6.827,4.261c0.979-3.058,4.052-5.053,7.451-5.076c-1.883-1.005-9.234-0.153-12.384,1.273
			c-4.617,2.096-5.201,6.295-5.333,10.991c-2.146-2.278-3.9-4.144-5.901-6.268c0-1.206,0-2.972,0-4.981
			c6.309-1.196,12.699-2.338,19.055-3.646c2.54-0.522,4.963-1.643,7.51-2.09c2.665-0.467,5.472-1.183,7.856,1.23
			c0.482,0.489,1.886,0.07,3.516,0.07c-0.983,0.712-1.485,1.073-2.715,1.964c2.008,0,3.692,0.511,4.34-0.093
			c2.348-2.187,4.73-0.37,7.056-0.471c2.042-0.087,4.104,0.115,6.146,0.295c3.824,0.336,5.844-2.01,7.961-4.711
			c0.831-1.061,2.528-3.34,4.117-1.134c2.432-0.478,4.472-1.083,6.544-1.227c2.279-0.155,4.591,0.074,6.884,0.204
			c4.208,0.238,8.413,0.541,12.621,0.78c0.704,0.039,1.418-0.103,2.604-0.199c-0.472-8.373-0.939-16.667-1.419-25.163
			c-2.395,0.851-4.026,1.774-5.745,1.97c-3.582,0.407-7.206,0.472-10.815,0.596c-2.771,0.095-5.561-0.109-8.312,0.143
			c-2.808,0.258-3.75-1.892-4.459-3.601c-1.069-2.584-3.39-2.364-4.989-2.283c-3.514,0.179-6.049-0.685-7.531-3.576
			c-0.307-0.595-0.899-1.524-1.319-1.502c-4.777,0.255-8.906-3.303-14.194-1.544c-3.818,1.271-8.451,1.222-11.356-3.481
			c-1.992-3.227-5.697-2.479-7.926,1.015c-1.708,2.675-3.534,5.01-7.007,6.085c-5.369,1.66-6.751,4.915-6.69,11.284
			c0.021,2.089-1.131,4.193-1.776,6.28c-0.062,0.203-0.521,0.449-0.494,0.494c2.154,3.593-0.327,6.742-0.933,10.067
			c-0.538,2.963-1.03,5.934-1.578,9.103c-0.754-1.506-4.662-0.577-3.229-4.411C1.291,44.766,0.398,43.9,0,43.218
			c0-0.91,0-1.822,0-2.734c1.412-1.603,2.522-3.176,1.824-5.604c-0.362-1.259,0.189-2.763,0.222-4.156
			c0.05-2.178,0.836-4.942-0.192-6.394c-1.486-2.099-1.173-3.968-1.213-6.051C0.631,17.835,0.224,17.399,0,16.96
			c0-0.547,0-1.094,0-1.642c1.528-0.344,3.059-0.688,4.705-1.06c0.16,0.803,0.318,1.603,0.593,2.976
			c0.335-1.129,0.807-1.827,0.633-2.273c-1.088-2.797,0.354-6.396-2.717-8.597c-0.262-0.19-0.172-1.17,0.036-1.662
			C3.92,3.104,4.72,1.563,5.47,0C40.664,0.002,75.858,0.002,111.054,0.002z"/>
		<path fill="#808285" d="M32.275,77.14c-1.576-0.184-3.155-0.363-4.733-0.55c-1.046-0.124-2.092-0.256-3.108-0.853
			c4.584,0,9.167,0,13.395,0c-1.444,0.405-3.225,0.904-5.003,1.401C32.64,77.14,32.458,77.14,32.275,77.14z"/>
		<path fill="#808285" d="M98.721,38.783c-0.779,0.262-1.553,0.811-2.038,0.624c-0.95-0.369-1.72-1.183-2.602-1.75
			c-0.707-0.456-1.428-1.025-2.216-1.194c-4.213-0.902-7.99,0.686-11.738,2.268c-1.859,0.785-3.604,1.937-5.525,2.454
			c-1.338,0.358-2.074-0.567-1.698-2.178c1.191-5.104,4.224-6.367,10.103-7.841c1.037-0.259,2.123-0.328,3.149-0.611
			c2.845-0.787,5.341-0.738,7.347,1.947c1.25,1.671,2.903,3.038,4.338,4.578C98.133,37.392,98.257,37.865,98.721,38.783z"/>
		<path fill="#808285" d="M47.283,41.324c-5.787-1.083-11.482-2.239-17.217-3.147c-1.281-0.202-2.734,0.354-4.049,0.757
			c-2.146,0.658-4.243,1.479-6.837,2.397c1.078-4.154,4.599-5.35,6.5-5.146c3.187,0.34,5.399-1.319,8.081-1.831
			c4.92-0.937,9.721-0.491,13.68,2.662c1.463,1.165,1.907,3.629,2.729,5.539c0.074,0.174-0.463,0.836-0.789,0.9
			c-0.44,0.087-1.159-0.029-1.39-0.335C47.588,42.586,47.469,41.841,47.283,41.324z"/>
	</g>
</g>
</svg>
